<?xml version="1.0" standalone="no"?>
<!DOCTYPE svg PUBLIC "-//W3C//DTD SVG 20010904//EN"
 "http://www.w3.org/TR/2001/REC-SVG-20010904/DTD/svg10.dtd">
<svg version="1.0" xmlns="http://www.w3.org/2000/svg"
 width="64.000000pt" height="64.000000pt" viewBox="0 0 64.000000 64.000000"
 preserveAspectRatio="xMidYMid meet">

<g transform="translate(0.000000,64.000000) scale(0.100000,-0.100000)"
fill="#000000" stroke="none">
<path d="M247 630 c-92 -24 -179 -97 -219 -185 -31 -70 -31 -180 1 -252 29
-66 110 -143 176 -169 66 -25 164 -25 230 0 66 26 147 103 176 169 32 72 33
181 1 253 -29 64 -102 136 -166 165 -56 24 -143 33 -199 19z m135 -110 c21 -6
51 -22 68 -36 33 -28 77 -26 66 3 -5 13 -1 14 26 9 42 -8 43 -10 28 -45 -7
-19 -17 -28 -26 -24 -7 3 -42 -11 -77 -30 l-63 -35 -23 24 c-32 33 -93 33
-126 -1 -40 -39 -32 -45 55 -45 78 0 80 -1 80 -25 0 -23 -2 -24 -82 -27 l-81
-3 24 -28 c35 -40 76 -44 121 -13 35 23 68 26 68 6 0 -17 -62 -59 -95 -66
-100 -19 -188 81 -156 179 23 68 101 108 169 86 20 -6 42 -15 47 -20 6 -4 17
-4 24 0 17 11 -20 38 -71 52 -123 33 -242 -99 -197 -218 23 -63 95 -113 161
-113 44 0 107 37 135 79 29 43 29 59 1 63 -15 2 -24 11 -26 26 -3 20 0 22 47
22 45 0 51 -3 51 -21 0 -95 -78 -191 -164 -204 -135 -21 -240 53 -253 176 -7
75 9 127 55 172 61 60 134 79 214 57z"/>
</g>
</svg>
